<svg xmlns="http://www.w3.org/2000/svg"  viewBox="0 0 30 30" width="30px" height="30px" baseProfile="basic"><polygon fill="#788b9c" points="15.159,9.5 10.58,1.5 6,9.5"/><polygon fill="#c5d4de" points="24.193,9.5 19.739,1.5 15.159,9.5"/><polygon fill="#788b9c" points="10.58,1.5 15.159,9.5 19.739,1.5"/><polygon fill="#788b9c" points="6,9.5 10.58,17.5 15.159,9.5"/><path fill="#36404d" d="M10.567,17.959L5.419,9.508L10.29,1h9.743l5.011,9h-9.604L10.567,17.959z M6.581,9.492l3.989,6.549	L14.879,9h8.464l-3.898-7H10.87L6.581,9.492z"/><rect width="9.175" height="1" x="12.729" y="5.181" fill="#36404d" transform="rotate(-60.659 17.316 5.682)"/><rect width="1" height="9.218" x="12.369" y=".891" fill="#36404d" transform="rotate(-29.788 12.87 5.5)"/><rect width="9.071" height="1" x="6" y="9" fill="#36404d"/><polygon fill="#788b9c" points="15.034,20.5 19.614,28.5 24.443,20.5"/><polygon fill="#c5d4de" points="6,20.5 10.455,28.5 15.034,20.5"/><polygon fill="#788b9c" points="19.614,28.5 15.034,20.5 10.455,28.5"/><polygon fill="#788b9c" points="24.443,20.5 19.614,12.5 15.034,20.5"/><path fill="#36404d" d="M19.896,29h-9.735l-5.011-9h9.604l4.861-7.94l5.417,8.433L19.896,29z M10.749,28h8.583l4.523-7.492	l-4.219-6.567L15.314,21H6.851L10.749,28z"/><rect width="9.174" height="1" x="8.289" y="23.818" fill="#36404d" transform="rotate(-60.659 12.876 24.318)"/><rect width="1" height="9.218" x="16.824" y="19.891" fill="#36404d" transform="rotate(-29.788 17.325 24.5)"/><rect width="9.321" height="1" x="15.122" y="20" fill="#36404d"/></svg>